<svg xmlns="http://www.w3.org/2000/svg" viewBox="0 0 1200 400" width="1200" height="400">
  <defs>
    <!-- Background gradient -->
    <linearGradient id="bgGrad" x1="0%" y1="0%" x2="100%" y2="100%">
      <stop offset="0%" stop-color="#0A0A0F"/>
      <stop offset="40%" stop-color="#0D0D18"/>
      <stop offset="100%" stop-color="#0A0A0F"/>
    </linearGradient>
    <!-- Neon line gradient -->
    <linearGradient id="neonLine" x1="0%" y1="0%" x2="100%" y2="0%">
      <stop offset="0%" stop-color="#00C9FF" stop-opacity="0"/>
      <stop offset="20%" stop-color="#00C9FF"/>
      <stop offset="50%" stop-color="#7B2FFF"/>
      <stop offset="80%" stop-color="#FF006E"/>
      <stop offset="100%" stop-color="#FF006E" stop-opacity="0"/>
    </linearGradient>
    <!-- JavaScript badge gradient -->
    <linearGradient id="jsBadge" x1="0%" y1="0%" x2="100%" y2="100%">
      <stop offset="0%" stop-color="#F7DF1E"/>
      <stop offset="100%" stop-color="#D4C00A"/>
    </linearGradient>
    <!-- Top accent gradient -->
    <linearGradient id="topAccent" x1="0%" y1="0%" x2="100%" y2="0%">
      <stop offset="0%" stop-color="#00C9FF" stop-opacity="0"/>
      <stop offset="50%" stop-color="#00C9FF" stop-opacity="0.8"/>
      <stop offset="100%" stop-color="#00C9FF" stop-opacity="0"/>
    </linearGradient>
    <!-- Glow filter -->
    <filter id="glow" x="-20%" y="-20%" width="140%" height="140%">
      <feGaussianBlur in="SourceGraphic" stdDeviation="6" result="blur"/>
      <feColorMatrix in="blur" type="matrix"
        values="0 0 0 0 0
                0 0.78 0 0 0
                0 0 1 0 0
                0 0 0 0.5 0"/>
      <feMerge>
        <feMergeNode/>
        <feMergeNode in="SourceGraphic"/>
      </feMerge>
    </filter>
    <!-- Text glow -->
    <filter id="textGlow" x="-10%" y="-10%" width="120%" height="120%">
      <feGaussianBlur in="SourceGraphic" stdDeviation="2" result="blur"/>
      <feColorMatrix in="blur" type="matrix"
        values="0 0 0 0 0
                0 0.78 0 0 0
                0 0 1 0 0
                0 0 0 0.3 0"/>
      <feMerge>
        <feMergeNode/>
        <feMergeNode in="SourceGraphic"/>
      </feMerge>
    </filter>
    <!-- Soft radial glow for center -->
    <radialGradient id="centerGlow" cx="50%" cy="50%" r="40%">
      <stop offset="0%" stop-color="#00C9FF" stop-opacity="0.05"/>
      <stop offset="100%" stop-color="#0A0A0F" stop-opacity="0"/>
    </radialGradient>
    <!-- Mask for fade edges -->
    <mask id="fadeMask">
      <rect width="1200" height="400" fill="white"/>
      <rect width="80" height="400" fill="black" opacity="0.7"/>
      <rect x="1120" width="80" height="400" fill="black" opacity="0.7"/>
    </mask>
  </defs>

  <!-- Background -->
  <rect width="1200" height="400" fill="url(#bgGrad)"/>

  <!-- Center ambient glow -->
  <rect width="1200" height="400" fill="url(#centerGlow)"/>

  <!-- Dot grid pattern -->
  <g opacity="0.06" mask="url(#fadeMask)">
    <g id="dotRow">
      <circle r="1" fill="#00C9FF"/>
    </g>
    <!-- Grid of dots - 30px spacing -->
    <g transform="translate(30,30)">
      <circle cx="0" cy="0" r="0.8" fill="#E4E4E7"/><circle cx="40" cy="0" r="0.8" fill="#E4E4E7"/>
      <circle cx="80" cy="0" r="0.8" fill="#E4E4E7"/><circle cx="120" cy="0" r="0.8" fill="#E4E4E7"/>
      <circle cx="160" cy="0" r="0.8" fill="#E4E4E7"/><circle cx="200" cy="0" r="0.8" fill="#E4E4E7"/>
      <circle cx="240" cy="0" r="0.8" fill="#E4E4E7"/><circle cx="280" cy="0" r="0.8" fill="#E4E4E7"/>
      <circle cx="320" cy="0" r="0.8" fill="#E4E4E7"/><circle cx="360" cy="0" r="0.8" fill="#E4E4E7"/>
      <circle cx="400" cy="0" r="0.8" fill="#E4E4E7"/><circle cx="440" cy="0" r="0.8" fill="#E4E4E7"/>
      <circle cx="480" cy="0" r="0.8" fill="#E4E4E7"/><circle cx="520" cy="0" r="0.8" fill="#E4E4E7"/>
      <circle cx="560" cy="0" r="0.8" fill="#E4E4E7"/><circle cx="600" cy="0" r="0.8" fill="#E4E4E7"/>
      <circle cx="640" cy="0" r="0.8" fill="#E4E4E7"/><circle cx="680" cy="0" r="0.8" fill="#E4E4E7"/>
      <circle cx="720" cy="0" r="0.8" fill="#E4E4E7"/><circle cx="760" cy="0" r="0.8" fill="#E4E4E7"/>
      <circle cx="800" cy="0" r="0.8" fill="#E4E4E7"/><circle cx="840" cy="0" r="0.8" fill="#E4E4E7"/>
      <circle cx="880" cy="0" r="0.8" fill="#E4E4E7"/><circle cx="920" cy="0" r="0.8" fill="#E4E4E7"/>
      <circle cx="960" cy="0" r="0.8" fill="#E4E4E7"/><circle cx="1000" cy="0" r="0.8" fill="#E4E4E7"/>
      <circle cx="1040" cy="0" r="0.8" fill="#E4E4E7"/><circle cx="1080" cy="0" r="0.8" fill="#E4E4E7"/>
      <circle cx="1120" cy="0" r="0.8" fill="#E4E4E7"/>
    </g>
    <g transform="translate(30,70)">
      <circle cx="0" cy="0" r="0.8" fill="#E4E4E7"/><circle cx="40" cy="0" r="0.8" fill="#E4E4E7"/>
      <circle cx="80" cy="0" r="0.8" fill="#E4E4E7"/><circle cx="120" cy="0" r="0.8" fill="#E4E4E7"/>
      <circle cx="160" cy="0" r="0.8" fill="#E4E4E7"/><circle cx="200" cy="0" r="0.8" fill="#E4E4E7"/>
      <circle cx="240" cy="0" r="0.8" fill="#E4E4E7"/><circle cx="280" cy="0" r="0.8" fill="#E4E4E7"/>
      <circle cx="320" cy="0" r="0.8" fill="#E4E4E7"/><circle cx="360" cy="0" r="0.8" fill="#E4E4E7"/>
      <circle cx="400" cy="0" r="0.8" fill="#E4E4E7"/><circle cx="440" cy="0" r="0.8" fill="#E4E4E7"/>
      <circle cx="480" cy="0" r="0.8" fill="#E4E4E7"/><circle cx="520" cy="0" r="0.8" fill="#E4E4E7"/>
      <circle cx="560" cy="0" r="0.8" fill="#E4E4E7"/><circle cx="600" cy="0" r="0.8" fill="#E4E4E7"/>
      <circle cx="640" cy="0" r="0.8" fill="#E4E4E7"/><circle cx="680" cy="0" r="0.8" fill="#E4E4E7"/>
      <circle cx="720" cy="0" r="0.8" fill="#E4E4E7"/><circle cx="760" cy="0" r="0.8" fill="#E4E4E7"/>
      <circle cx="800" cy="0" r="0.8" fill="#E4E4E7"/><circle cx="840" cy="0" r="0.8" fill="#E4E4E7"/>
      <circle cx="880" cy="0" r="0.8" fill="#E4E4E7"/><circle cx="920" cy="0" r="0.8" fill="#E4E4E7"/>
      <circle cx="960" cy="0" r="0.8" fill="#E4E4E7"/><circle cx="1000" cy="0" r="0.8" fill="#E4E4E7"/>
      <circle cx="1040" cy="0" r="0.8" fill="#E4E4E7"/><circle cx="1080" cy="0" r="0.8" fill="#E4E4E7"/>
      <circle cx="1120" cy="0" r="0.8" fill="#E4E4E7"/>
    </g>
    <g transform="translate(30,110)">
      <circle cx="0" cy="0" r="0.8" fill="#E4E4E7"/><circle cx="40" cy="0" r="0.8" fill="#E4E4E7"/>
      <circle cx="80" cy="0" r="0.8" fill="#E4E4E7"/><circle cx="120" cy="0" r="0.8" fill="#E4E4E7"/>
      <circle cx="160" cy="0" r="0.8" fill="#E4E4E7"/><circle cx="200" cy="0" r="0.8" fill="#E4E4E7"/>
      <circle cx="240" cy="0" r="0.8" fill="#E4E4E7"/><circle cx="280" cy="0" r="0.8" fill="#E4E4E7"/>
      <circle cx="320" cy="0" r="0.8" fill="#E4E4E7"/><circle cx="360" cy="0" r="0.8" fill="#E4E4E7"/>
      <circle cx="400" cy="0" r="0.8" fill="#E4E4E7"/><circle cx="440" cy="0" r="0.8" fill="#E4E4E7"/>
      <circle cx="480" cy="0" r="0.8" fill="#E4E4E7"/><circle cx="520" cy="0" r="0.8" fill="#E4E4E7"/>
      <circle cx="560" cy="0" r="0.8" fill="#E4E4E7"/><circle cx="600" cy="0" r="0.8" fill="#E4E4E7"/>
      <circle cx="640" cy="0" r="0.8" fill="#E4E4E7"/><circle cx="680" cy="0" r="0.8" fill="#E4E4E7"/>
      <circle cx="720" cy="0" r="0.8" fill="#E4E4E7"/><circle cx="760" cy="0" r="0.8" fill="#E4E4E7"/>
      <circle cx="800" cy="0" r="0.8" fill="#E4E4E7"/><circle cx="840" cy="0" r="0.8" fill="#E4E4E7"/>
      <circle cx="880" cy="0" r="0.8" fill="#E4E4E7"/><circle cx="920" cy="0" r="0.8" fill="#E4E4E7"/>
      <circle cx="960" cy="0" r="0.8" fill="#E4E4E7"/><circle cx="1000" cy="0" r="0.8" fill="#E4E4E7"/>
      <circle cx="1040" cy="0" r="0.8" fill="#E4E4E7"/><circle cx="1080" cy="0" r="0.8" fill="#E4E4E7"/>
    </g>
    <g transform="translate(30,150)">
      <circle cx="0" cy="0" r="0.8" fill="#E4E4E7"/><circle cx="40" cy="0" r="0.8" fill="#E4E4E7"/>
      <circle cx="80" cy="0" r="0.8" fill="#E4E4E7"/><circle cx="120" cy="0" r="0.8" fill="#E4E4E7"/>
      <circle cx="160" cy="0" r="0.8" fill="#E4E4E7"/><circle cx="200" cy="0" r="0.8" fill="#E4E4E7"/>
      <circle cx="240" cy="0" r="0.8" fill="#E4E4E7"/><circle cx="280" cy="0" r="0.8" fill="#E4E4E7"/>
      <circle cx="320" cy="0" r="0.8" fill="#E4E4E7"/><circle cx="360" cy="0" r="0.8" fill="#E4E4E7"/>
      <circle cx="400" cy="0" r="0.8" fill="#E4E4E7"/><circle cx="440" cy="0" r="0.8" fill="#E4E4E7"/>
      <circle cx="480" cy="0" r="0.8" fill="#E4E4E7"/><circle cx="520" cy="0" r="0.8" fill="#E4E4E7"/>
      <circle cx="560" cy="0" r="0.8" fill="#E4E4E7"/><circle cx="600" cy="0" r="0.8" fill="#E4E4E7"/>
      <circle cx="640" cy="0" r="0.8" fill="#E4E4E7"/><circle cx="680" cy="0" r="0.8" fill="#E4E4E7"/>
      <circle cx="720" cy="0" r="0.8" fill="#E4E4E7"/><circle cx="760" cy="0" r="0.8" fill="#E4E4E7"/>
      <circle cx="800" cy="0" r="0.8" fill="#E4E4E7"/><circle cx="840" cy="0" r="0.8" fill="#E4E4E7"/>
      <circle cx="880" cy="0" r="0.8" fill="#E4E4E7"/><circle cx="920" cy="0" r="0.8" fill="#E4E4E7"/>
      <circle cx="960" cy="0" r="0.8" fill="#E4E4E7"/><circle cx="1000" cy="0" r="0.8" fill="#E4E4E7"/>
      <circle cx="1040" cy="0" r="0.8" fill="#E4E4E7"/><circle cx="1080" cy="0" r="0.8" fill="#E4E4E7"/>
    </g>
    <g transform="translate(30,190)">
      <circle cx="0" cy="0" r="0.8" fill="#E4E4E7"/><circle cx="40" cy="0" r="0.8" fill="#E4E4E7"/>
      <circle cx="80" cy="0" r="0.8" fill="#E4E4E7"/><circle cx="120" cy="0" r="0.8" fill="#E4E4E7"/>
      <circle cx="160" cy="0" r="0.8" fill="#E4E4E7"/><circle cx="200" cy="0" r="0.8" fill="#E4E4E7"/>
      <circle cx="240" cy="0" r="0.8" fill="#E4E4E7"/><circle cx="280" cy="0" r="0.8" fill="#E4E4E7"/>
      <circle cx="320" cy="0" r="0.8" fill="#E4E4E7"/><circle cx="360" cy="0" r="0.8" fill="#E4E4E7"/>
      <circle cx="400" cy="0" r="0.8" fill="#E4E4E7"/><circle cx="440" cy="0" r="0.8" fill="#E4E4E7"/>
      <circle cx="480" cy="0" r="0.8" fill="#E4E4E7"/><circle cx="520" cy="0" r="0.8" fill="#E4E4E7"/>
      <circle cx="560" cy="0" r="0.8" fill="#E4E4E7"/><circle cx="600" cy="0" r="0.8" fill="#E4E4E7"/>
      <circle cx="640" cy="0" r="0.8" fill="#E4E4E7"/><circle cx="680" cy="0" r="0.8" fill="#E4E4E7"/>
      <circle cx="720" cy="0" r="0.8" fill="#E4E4E7"/><circle cx="760" cy="0" r="0.8" fill="#E4E4E7"/>
      <circle cx="800" cy="0" r="0.8" fill="#E4E4E7"/><circle cx="840" cy="0" r="0.8" fill="#E4E4E7"/>
      <circle cx="880" cy="0" r="0.8" fill="#E4E4E7"/><circle cx="920" cy="0" r="0.8" fill="#E4E4E7"/>
      <circle cx="960" cy="0" r="0.8" fill="#E4E4E7"/><circle cx="1000" cy="0" r="0.8" fill="#E4E4E7"/>
      <circle cx="1040" cy="0" r="0.8" fill="#E4E4E7"/><circle cx="1080" cy="0" r="0.8" fill="#E4E4E7"/>
    </g>
    <g transform="translate(30,230)">
      <circle cx="0" cy="0" r="0.8" fill="#E4E4E7"/><circle cx="40" cy="0" r="0.8" fill="#E4E4E7"/>
      <circle cx="80" cy="0" r="0.8" fill="#E4E4E7"/><circle cx="120" cy="0" r="0.8" fill="#E4E4E7"/>
      <circle cx="160" cy="0" r="0.8" fill="#E4E4E7"/><circle cx="200" cy="0" r="0.8" fill="#E4E4E7"/>
      <circle cx="240" cy="0" r="0.8" fill="#E4E4E7"/><circle cx="280" cy="0" r="0.8" fill="#E4E4E7"/>
      <circle cx="320" cy="0" r="0.8" fill="#E4E4E7"/><circle cx="360" cy="0" r="0.8" fill="#E4E4E7"/>
      <circle cx="400" cy="0" r="0.8" fill="#E4E4E7"/><circle cx="440" cy="0" r="0.8" fill="#E4E4E7"/>
      <circle cx="480" cy="0" r="0.8" fill="#E4E4E7"/><circle cx="520" cy="0" r="0.8" fill="#E4E4E7"/>
      <circle cx="560" cy="0" r="0.8" fill="#E4E4E7"/><circle cx="600" cy="0" r="0.8" fill="#E4E4E7"/>
      <circle cx="640" cy="0" r="0.8" fill="#E4E4E7"/><circle cx="680" cy="0" r="0.8" fill="#E4E4E7"/>
      <circle cx="720" cy="0" r="0.8" fill="#E4E4E7"/><circle cx="760" cy="0" r="0.8" fill="#E4E4E7"/>
      <circle cx="800" cy="0" r="0.8" fill="#E4E4E7"/><circle cx="840" cy="0" r="0.8" fill="#E4E4E7"/>
      <circle cx="880" cy="0" r="0.8" fill="#E4E4E7"/><circle cx="920" cy="0" r="0.8" fill="#E4E4E7"/>
      <circle cx="960" cy="0" r="0.8" fill="#E4E4E7"/><circle cx="1000" cy="0" r="0.8" fill="#E4E4E7"/>
      <circle cx="1040" cy="0" r="0.8" fill="#E4E4E7"/><circle cx="1080" cy="0" r="0.8" fill="#E4E4E7"/>
    </g>
    <g transform="translate(30,270)">
      <circle cx="0" cy="0" r="0.8" fill="#E4E4E7"/><circle cx="40" cy="0" r="0.8" fill="#E4E4E7"/>
      <circle cx="80" cy="0" r="0.8" fill="#E4E4E7"/><circle cx="120" cy="0" r="0.8" fill="#E4E4E7"/>
      <circle cx="160" cy="0" r="0.8" fill="#E4E4E7"/><circle cx="200" cy="0" r="0.8" fill="#E4E4E7"/>
      <circle cx="240" cy="0" r="0.8" fill="#E4E4E7"/><circle cx="280" cy="0" r="0.8" fill="#E4E4E7"/>
      <circle cx="320" cy="0" r="0.8" fill="#E4E4E7"/><circle cx="360" cy="0" r="0.8" fill="#E4E4E7"/>
      <circle cx="400" cy="0" r="0.8" fill="#E4E4E7"/><circle cx="440" cy="0" r="0.8" fill="#E4E4E7"/>
      <circle cx="480" cy="0" r="0.8" fill="#E4E4E7"/><circle cx="520" cy="0" r="0.8" fill="#E4E4E7"/>
      <circle cx="560" cy="0" r="0.8" fill="#E4E4E7"/><circle cx="600" cy="0" r="0.8" fill="#E4E4E7"/>
      <circle cx="640" cy="0" r="0.8" fill="#E4E4E7"/><circle cx="680" cy="0" r="0.8" fill="#E4E4E7"/>
      <circle cx="720" cy="0" r="0.8" fill="#E4E4E7"/><circle cx="760" cy="0" r="0.8" fill="#E4E4E7"/>
      <circle cx="800" cy="0" r="0.8" fill="#E4E4E7"/><circle cx="840" cy="0" r="0.8" fill="#E4E4E7"/>
      <circle cx="880" cy="0" r="0.8" fill="#E4E4E7"/><circle cx="920" cy="0" r="0.8" fill="#E4E4E7"/>
      <circle cx="960" cy="0" r="0.8" fill="#E4E4E7"/><circle cx="1000" cy="0" r="0.8" fill="#E4E4E7"/>
      <circle cx="1040" cy="0" r="0.8" fill="#E4E4E7"/><circle cx="1080" cy="0" r="0.8" fill="#E4E4E7"/>
    </g>
    <g transform="translate(30,310)">
      <circle cx="0" cy="0" r="0.8" fill="#E4E4E7"/><circle cx="40" cy="0" r="0.8" fill="#E4E4E7"/>
      <circle cx="80" cy="0" r="0.8" fill="#E4E4E7"/><circle cx="120" cy="0" r="0.8" fill="#E4E4E7"/>
      <circle cx="160" cy="0" r="0.8" fill="#E4E4E7"/><circle cx="200" cy="0" r="0.8" fill="#E4E4E7"/>
      <circle cx="240" cy="0" r="0.8" fill="#E4E4E7"/><circle cx="280" cy="0" r="0.8" fill="#E4E4E7"/>
      <circle cx="320" cy="0" r="0.8" fill="#E4E4E7"/><circle cx="360" cy="0" r="0.8" fill="#E4E4E7"/>
      <circle cx="400" cy="0" r="0.8" fill="#E4E4E7"/><circle cx="440" cy="0" r="0.8" fill="#E4E4E7"/>
      <circle cx="480" cy="0" r="0.8" fill="#E4E4E7"/><circle cx="520" cy="0" r="0.8" fill="#E4E4E7"/>
      <circle cx="560" cy="0" r="0.8" fill="#E4E4E7"/><circle cx="600" cy="0" r="0.8" fill="#E4E4E7"/>
      <circle cx="640" cy="0" r="0.8" fill="#E4E4E7"/><circle cx="680" cy="0" r="0.8" fill="#E4E4E7"/>
      <circle cx="720" cy="0" r="0.8" fill="#E4E4E7"/><circle cx="760" cy="0" r="0.8" fill="#E4E4E7"/>
      <circle cx="800" cy="0" r="0.8" fill="#E4E4E7"/><circle cx="840" cy="0" r="0.8" fill="#E4E4E7"/>
      <circle cx="880" cy="0" r="0.8" fill="#E4E4E7"/><circle cx="920" cy="0" r="0.8" fill="#E4E4E7"/>
      <circle cx="960" cy="0" r="0.8" fill="#E4E4E7"/><circle cx="1000" cy="0" r="0.8" fill="#E4E4E7"/>
      <circle cx="1040" cy="0" r="0.8" fill="#E4E4E7"/><circle cx="1080" cy="0" r="0.8" fill="#E4E4E7"/>
    </g>
    <g transform="translate(30,350)">
      <circle cx="0" cy="0" r="0.8" fill="#E4E4E7"/><circle cx="40" cy="0" r="0.8" fill="#E4E4E7"/>
      <circle cx="80" cy="0" r="0.8" fill="#E4E4E7"/><circle cx="120" cy="0" r="0.8" fill="#E4E4E7"/>
      <circle cx="160" cy="0" r="0.8" fill="#E4E4E7"/><circle cx="200" cy="0" r="0.8" fill="#E4E4E7"/>
      <circle cx="240" cy="0" r="0.8" fill="#E4E4E7"/><circle cx="280" cy="0" r="0.8" fill="#E4E4E7"/>
      <circle cx="320" cy="0" r="0.8" fill="#E4E4E7"/><circle cx="360" cy="0" r="0.8" fill="#E4E4E7"/>
      <circle cx="400" cy="0" r="0.8" fill="#E4E4E7"/><circle cx="440" cy="0" r="0.8" fill="#E4E4E7"/>
      <circle cx="480" cy="0" r="0.8" fill="#E4E4E7"/><circle cx="520" cy="0" r="0.8" fill="#E4E4E7"/>
      <circle cx="560" cy="0" r="0.8" fill="#E4E4E7"/><circle cx="600" cy="0" r="0.8" fill="#E4E4E7"/>
      <circle cx="640" cy="0" r="0.8" fill="#E4E4E7"/><circle cx="680" cy="0" r="0.8" fill="#E4E4E7"/>
      <circle cx="720" cy="0" r="0.8" fill="#E4E4E7"/><circle cx="760" cy="0" r="0.8" fill="#E4E4E7"/>
      <circle cx="800" cy="0" r="0.8" fill="#E4E4E7"/><circle cx="840" cy="0" r="0.8" fill="#E4E4E7"/>
      <circle cx="880" cy="0" r="0.8" fill="#E4E4E7"/><circle cx="920" cy="0" r="0.8" fill="#E4E4E7"/>
      <circle cx="960" cy="0" r="0.8" fill="#E4E4E7"/><circle cx="1000" cy="0" r="0.8" fill="#E4E4E7"/>
      <circle cx="1040" cy="0" r="0.8" fill="#E4E4E7"/><circle cx="1080" cy="0" r="0.8" fill="#E4E4E7"/>
    </g>
  </g>

  <!-- Top accent line -->
  <rect x="0" y="0" width="1200" height="2" fill="url(#topAccent)"/>

  <!-- Decorative side lines -->
  <line x1="120" y1="80" x2="120" y2="320" stroke="#00C9FF" stroke-width="0.5" opacity="0.1"/>
  <line x1="1080" y1="80" x2="1080" y2="320" stroke="#7B2FFF" stroke-width="0.5" opacity="0.1"/>

  <!-- Decorative corner brackets -->
  <g stroke="#00C9FF" stroke-width="1.5" fill="none" opacity="0.3">
    <!-- Top-left -->
    <path d="M40,40 L40,60 M40,40 L60,40"/>
    <!-- Top-right -->
    <path d="M1160,40 L1160,60 M1160,40 L1140,40"/>
    <!-- Bottom-left -->
    <path d="M40,360 L40,340 M40,360 L60,360"/>
    <!-- Bottom-right -->
    <path d="M1160,360 L1160,340 M1160,360 L1140,360"/>
  </g>

  <!-- Main title -->
  <g filter="url(#textGlow)">
    <text x="600" y="145" text-anchor="middle"
      font-family="'SF Pro Display', 'Inter', 'Segoe UI', system-ui, sans-serif"
      font-size="56" font-weight="700" fill="#E4E4E7" letter-spacing="-1">
      Utkarsh Tripathi
    </text>
  </g>

  <!-- Neon divider line under name -->
  <g filter="url(#glow)">
    <rect x="420" y="170" width="360" height="2" rx="1" fill="url(#neonLine)"/>
  </g>

  <!-- Role subtitle -->
  <text x="600" y="210" text-anchor="middle"
    font-family="'SF Mono', 'Fira Code', 'Cascadia Code', monospace"
    font-size="18" fill="#71717A" letter-spacing="2">
    JavaScript Full Stack Developer
  </text>

  <!-- Role pills row -->
  <g transform="translate(600, 250)">
    <!-- JavaScript pill (emphasized - larger, glowing) -->
    <g transform="translate(-240, 0)" filter="url(#textGlow)">
      <rect x="-52" y="-14" width="104" height="28" rx="14" fill="url(#jsBadge)" opacity="0.9"/>
      <text x="0" y="5" text-anchor="middle"
        font-family="'SF Mono', 'Fira Code', monospace"
        font-size="12" font-weight="600" fill="#000000">
        JavaScript
      </text>
    </g>
    <!-- AI Engineer pill -->
    <g transform="translate(-105, 0)">
      <rect x="-48" y="-14" width="96" height="28" rx="14" fill="none" stroke="#7B2FFF" stroke-width="1" opacity="0.6"/>
      <text x="0" y="5" text-anchor="middle"
        font-family="'SF Mono', 'Fira Code', monospace"
        font-size="12" fill="#7B2FFF" opacity="0.9">
        AI Engineer
      </text>
    </g>
    <!-- MERN pill -->
    <g transform="translate(15, 0)">
      <rect x="-40" y="-14" width="80" height="28" rx="14" fill="none" stroke="#00C9FF" stroke-width="1" opacity="0.4"/>
      <text x="0" y="5" text-anchor="middle"
        font-family="'SF Mono', 'Fira Code', monospace"
        font-size="12" fill="#00C9FF" opacity="0.7">
        MERN
      </text>
    </g>
    <!-- Next.js pill -->
    <g transform="translate(120, 0)">
      <rect x="-36" y="-14" width="72" height="28" rx="14" fill="none" stroke="#E4E4E7" stroke-width="1" opacity="0.3"/>
      <text x="0" y="5" text-anchor="middle"
        font-family="'SF Mono', 'Fira Code', monospace"
        font-size="12" fill="#E4E4E7" opacity="0.6">
        Next.js
      </text>
    </g>
    <!-- FastAPI pill -->
    <g transform="translate(220, 0)">
      <rect x="-36" y="-14" width="72" height="28" rx="14" fill="none" stroke="#00FF88" stroke-width="1" opacity="0.3"/>
      <text x="0" y="5" text-anchor="middle"
        font-family="'SF Mono', 'Fira Code', monospace"
        font-size="12" fill="#00FF88" opacity="0.6">
        FastAPI
      </text>
    </g>
  </g>

  <!-- Status line -->
  <g transform="translate(600, 305)">
    <circle cx="-80" cy="-4" r="4" fill="#00FF88" opacity="0.8"/>
    <text x="-68" y="0" text-anchor="start"
      font-family="'SF Mono', 'Fira Code', monospace"
      font-size="13" fill="#71717A">
      Available for Software Engineering Internship
    </text>
  </g>

  <!-- Bottom neon line -->
  <rect x="0" y="398" width="1200" height="2" fill="url(#neonLine)"/>

  <!-- Bottom corner version tag -->
  <text x="1160" y="380" text-anchor="end"
    font-family="'SF Mono', 'Fira Code', monospace"
    font-size="10" fill="#71717A" opacity="0.4">
    v3.0
  </text>
</svg>
